<svg width="23" height="23" viewBox="0 0 23 23" fill="none" xmlns="http://www.w3.org/2000/svg">
<path d="M16.6949 0H6.3051C2.82846 0 0 2.82846 0 6.30514V16.6949C0 20.1716 2.82846 23 6.3051 23H16.6949C20.1716 23 23 20.1716 23 16.6949V6.30514C23 2.82846 20.1716 0 16.6949 0ZM21.6417 16.6949C21.6417 19.4226 19.4226 21.6417 16.6949 21.6417H6.3051C3.5774 21.6417 1.35826 19.4226 1.35826 16.6949V6.30514C1.35826 3.5774 3.5774 1.35826 6.3051 1.35826H16.6949C19.4226 1.35826 21.6417 3.5774 21.6417 6.30514V16.6949Z" fill="white"/>
</svg>
