<svg width="123" height="23" viewBox="0 0 123 23" fill="none" xmlns="http://www.w3.org/2000/svg">
<path d="M5.73101 12.1649V21.4503H1.52049V12.1649H0V8.90095H1.52049V6.42491C1.52049 5.01821 1.66677 3.41442 2.98248 2.06396C3.8304 1.19135 5.02925 0.628906 6.63753 0.628906C7.57312 0.628906 8.33325 0.797641 9.03524 1.05074V4.59613C8.56744 4.31468 7.95324 4.11783 7.42684 4.11783C6.7837 4.11783 6.37427 4.39928 6.1988 4.62426C5.73101 5.21529 5.73101 6.20005 5.73101 6.79073V8.90107H9.06442V12.165H5.73101V12.1649Z" fill="white"/>
<path d="M21.1284 19.8455C20.1456 20.971 18.4749 21.8717 16.3371 21.8717C14.1996 21.8717 12.5287 20.9711 11.5459 19.8455C10.4404 18.5792 9.89966 16.7784 9.89966 15.175C9.89966 13.5711 10.4404 11.7703 11.5459 10.504C12.5287 9.37854 14.1996 8.47827 16.3371 8.47827C18.4749 8.47827 20.1456 9.37842 21.1284 10.504C22.2342 11.7703 22.7746 13.5712 22.7746 15.175C22.7746 16.7786 22.2342 18.5793 21.1284 19.8455ZM14.3471 12.8112C13.8311 13.4021 13.5363 14.1617 13.5363 15.1749C13.5363 16.3285 13.9293 17.0599 14.3471 17.5382C14.7892 18.0446 15.4281 18.4387 16.3617 18.4387C17.1481 18.4387 17.8115 18.1291 18.3276 17.5382C18.8433 16.9472 19.1383 16.1878 19.1383 15.1749C19.1383 14.1617 18.8433 13.4021 18.3276 12.8112C17.8115 12.2205 17.1481 11.9111 16.3373 11.9111C15.5264 11.9111 14.863 12.2205 14.3472 12.8112H14.3471Z" fill="white"/>
<path d="M28.7701 14.6129L24.4211 8.90088H28.9421L30.9815 11.7991L33.0208 8.90088H37.5418L33.1929 14.6129L38.5491 21.4502H33.9789L30.9815 17.3984L27.9839 21.4502H23.4138L28.7701 14.6129Z" fill="white"/>
<path d="M39.9741 8.90113H43.5121V10.3643C44.4212 8.78888 45.748 8.59155 46.5834 8.59155C47.0504 8.59155 47.9104 8.64804 48.6474 9.15459C49.2125 9.5203 49.6794 10.1394 49.9741 10.8992C50.2445 10.3924 50.6622 9.80175 51.3748 9.29519C52.1365 8.7604 52.849 8.59155 53.7089 8.59155C55.0359 8.59155 56.1168 9.04186 56.7803 9.77374C57.8368 10.9273 57.9106 12.6154 57.9106 13.516V21.4505H54.3724V15.0914C54.3724 14.4443 54.3724 13.3187 53.9054 12.6434C53.6106 12.2216 53.144 11.9681 52.6279 11.9681C52.0382 11.9681 51.5466 12.2777 51.2519 12.728C50.785 13.4033 50.7113 14.388 50.7113 15.204V21.4503H47.1734V14.9225C47.1734 14.0783 47.1488 13.0935 46.6082 12.4744C46.2397 12.0526 45.7974 11.968 45.4289 11.968C44.9619 11.968 44.5444 12.1088 44.2004 12.4744C43.5369 13.2062 43.5123 14.6129 43.5123 15.0351V21.4503H39.9744V8.90102L39.9741 8.90113Z" fill="white"/>
<path d="M62.7025 1.19104C63.8574 1.19104 64.7665 2.23238 64.7665 3.55483C64.7665 4.87716 63.8574 5.91815 62.7025 5.91815C61.5477 5.91815 60.6387 4.87716 60.6387 3.55483C60.6387 2.23238 61.5477 1.19104 62.7025 1.19104ZM64.7665 9.1418V21.6911L60.9336 21.45V8.90063L64.7665 9.1418Z" fill="white"/>
<path d="M67.4683 8.9002H71.0062V10.3915C72.0875 8.81595 73.3652 8.5625 74.3969 8.5625C75.3552 8.5625 76.6084 8.75947 77.5419 9.82882C78.574 11.0105 78.6475 12.5017 78.6475 13.5151V21.4495H75.1096V15.0064C75.1096 14.1903 75.0852 13.149 74.5199 12.5018C74.2496 12.1923 73.8073 11.9392 73.1687 11.9392C72.4313 11.9392 71.9644 12.2769 71.6943 12.6144C71.1044 13.2899 71.0062 14.1903 71.0062 15.0064V21.4495H67.4683V8.9002Z" fill="white"/>
<path d="M93.3409 21.4504H89.8029V19.9311C89.2625 20.8312 88.2795 21.8726 86.3388 21.8726C84.7168 21.8726 83.5377 21.2815 82.5794 20.1559C81.4492 18.8615 80.8596 17.0608 80.8596 15.1192C80.8596 13.0374 81.5227 11.3207 82.5794 10.1671C83.5377 9.12614 84.889 8.47899 86.388 8.47899C87.5918 8.47899 88.9186 8.92929 89.803 10.3079V0.938232H93.341V21.4501L93.3409 21.4504ZM85.3557 12.8123C84.8397 13.3752 84.4958 14.1912 84.4958 15.2041C84.4958 16.1327 84.8397 16.9482 85.3557 17.5113C85.8962 18.1023 86.5844 18.3834 87.1987 18.3834C87.8617 18.3834 88.6481 18.0738 89.2133 17.4551C89.6311 17.0048 90.0241 16.2451 90.0241 15.2042C90.0241 14.1347 89.6555 13.4033 89.2376 12.8969C88.6728 12.2216 88.0094 11.9683 87.2478 11.9683C86.5352 11.9683 85.9209 12.1932 85.3557 12.8124V12.8123Z" fill="white"/>
<path fill-rule="evenodd" clip-rule="evenodd" d="M123 0H95V23H123V0ZM107.52 15.8785H99.3377C99.3377 16.5538 99.5587 17.4543 100.001 18.017C100.542 18.6923 101.279 18.8049 101.819 18.8049C102.335 18.8049 102.876 18.6921 103.245 18.439C103.294 18.4106 103.711 18.1015 104.006 17.3977L107.348 17.7919C106.856 19.5642 105.873 20.4928 105.235 20.9432C104.178 21.6745 102.999 21.8718 101.77 21.8718C100.124 21.8718 98.6744 21.5341 97.3967 20.071C96.4384 18.9735 95.7506 17.3135 95.7506 15.2311C95.7506 13.4304 96.3154 11.5735 97.4214 10.279C98.7479 8.75949 100.394 8.47827 101.623 8.47827C102.851 8.47827 104.62 8.73136 105.972 10.3633C107.274 11.9391 107.52 13.9087 107.52 15.456V15.8783V15.8785ZM104.252 13.4586L104.252 13.458C104.226 13.3431 104.054 12.5575 103.539 11.9954C103.146 11.5736 102.581 11.2921 101.868 11.2921C100.959 11.2921 100.419 11.7143 100.075 12.1081C99.8047 12.4457 99.5587 12.8959 99.4604 13.4586H104.252ZM118.134 21.4504H121.672L121.672 21.4501V0.938232H118.134V10.3079C117.249 8.92929 115.923 8.47899 114.719 8.47899C113.22 8.47899 111.869 9.12614 110.91 10.1671C109.853 11.3207 109.19 13.0374 109.19 15.1192C109.19 17.0608 109.78 18.8615 110.91 20.1559C111.869 21.2815 113.048 21.8726 114.67 21.8726C116.61 21.8726 117.593 20.8312 118.134 19.9311V21.4504ZM112.827 15.2041C112.827 14.1912 113.171 13.3752 113.687 12.8123V12.8124C114.252 12.1932 114.866 11.9683 115.579 11.9683C116.34 11.9683 117.004 12.2216 117.568 12.8969C117.986 13.4033 118.355 14.1347 118.355 15.2042C118.355 16.2451 117.962 17.0048 117.544 17.4551C116.979 18.0738 116.192 18.3834 115.529 18.3834C114.915 18.3834 114.227 18.1023 113.687 17.5113C113.171 16.9482 112.827 16.1327 112.827 15.2041Z" fill="white"/>
</svg>
