<svg width="40" height="40" viewBox="0 0 40 40" fill="none" xmlns="http://www.w3.org/2000/svg">
<path d="M20 0.5C9.22812 0.5 0.5 9.22812 0.5 20C0.5 30.7719 9.22812 39.5 20 39.5C30.7719 39.5 39.5 30.7719 39.5 20C39.5 9.22812 30.7719 0.5 20 0.5ZM24.9406 27.0594L20 22.1188L15.0594 27.0594C14.4781 27.6406 13.5219 27.6406 12.9406 27.0594C12.65 26.7687 12.5 26.3844 12.5 26C12.5 25.6156 12.65 25.2313 12.9406 24.9406L17.8812 20L12.9406 15.0594C12.65 14.7688 12.5 14.3844 12.5 14C12.5 13.6156 12.65 13.2312 12.9406 12.9406C13.5219 12.3594 14.4781 12.3594 15.0594 12.9406L20 17.8812L24.9406 12.9406C25.5219 12.3594 26.4781 12.3594 27.0594 12.9406C27.6406 13.5219 27.6406 14.4781 27.0594 15.0594L22.1188 20L27.0594 24.9406C27.6406 25.5219 27.6406 26.4781 27.0594 27.0594C26.4781 27.65 25.5219 27.65 24.9406 27.0594Z" fill="#8C8C8C"/>
</svg>
