<svg width="122" height="22" viewBox="0 0 122 22" fill="none" xmlns="http://www.w3.org/2000/svg">
<path d="M5.73101 11.536V20.8214H1.52049V11.536H0V8.27205H1.52049V5.796C1.52049 4.3893 1.66677 2.78551 2.98248 1.43506C3.8304 0.562445 5.02925 0 6.63753 0C7.57312 0 8.33325 0.168735 9.03524 0.421834V3.96723C8.56744 3.68577 7.95324 3.48892 7.42684 3.48892C6.7837 3.48892 6.37427 3.77037 6.1988 3.99535C5.73101 4.58639 5.73101 5.57114 5.73101 6.16182V8.27216H9.06442V11.5361H5.73101V11.536Z" fill="#CC5520"/>
<path d="M21.1282 19.2149C20.1453 20.3404 18.4747 21.2411 16.3369 21.2411C14.1994 21.2411 12.5285 20.3405 11.5456 19.2149C10.4401 17.9486 9.89941 16.1478 9.89941 14.5444C9.89941 12.9405 10.4401 11.1397 11.5456 9.8734C12.5285 8.74792 14.1994 7.84766 16.3369 7.84766C18.4747 7.84766 20.1453 8.74781 21.1282 9.8734C22.2339 11.1397 22.7744 12.9406 22.7744 14.5444C22.7744 16.1479 22.2339 17.9487 21.1282 19.2149ZM14.3468 12.1806C13.8308 12.7715 13.536 13.531 13.536 14.5443C13.536 15.6979 13.929 16.4293 14.3468 16.9076C14.789 17.414 15.4279 17.8081 16.3615 17.8081C17.1478 17.8081 17.8113 17.4985 18.3273 16.9076C18.8431 16.3166 19.138 15.5571 19.138 14.5443C19.138 13.531 18.8431 12.7715 18.3273 12.1806C17.8113 11.5899 17.1478 11.2805 16.337 11.2805C15.5262 11.2805 14.8627 11.5899 14.347 12.1806H14.3468Z" fill="#CC5520"/>
<path d="M28.7704 13.9854L24.4214 8.27344H28.9423L30.9818 11.1717L33.0211 8.27344H37.542L33.1931 13.9854L38.5493 20.8228H33.9791L30.9818 16.7709L27.9841 20.8228H23.4141L28.7704 13.9854Z" fill="#CC5520"/>
<path d="M39.9741 8.27052H43.5121V9.7337C44.4212 8.15827 45.748 7.96094 46.5834 7.96094C47.0504 7.96094 47.9104 8.01742 48.6474 8.52398C49.2125 8.88968 49.6794 9.50883 49.9741 10.2686C50.2445 9.76181 50.6622 9.17113 51.3748 8.66458C52.1365 8.12979 52.849 7.96094 53.7089 7.96094C55.0359 7.96094 56.1168 8.41124 56.7803 9.14313C57.8368 10.2967 57.9106 11.9848 57.9106 12.8854V20.8198H54.3724V14.4608C54.3724 13.8136 54.3724 12.6881 53.9054 12.0128C53.6106 11.5909 53.144 11.3375 52.6279 11.3375C52.0382 11.3375 51.5466 11.6471 51.2519 12.0974C50.785 12.7727 50.7113 13.7574 50.7113 14.5734V20.8197H47.1734V14.2918C47.1734 13.4477 47.1488 12.4628 46.6082 11.8438C46.2397 11.422 45.7974 11.3374 45.4289 11.3374C44.9619 11.3374 44.5444 11.4782 44.2004 11.8438C43.5369 12.5756 43.5123 13.9823 43.5123 14.4045V20.8197H39.9744V8.2704L39.9741 8.27052Z" fill="#CC5520"/>
<path d="M62.7025 0.5625C63.8574 0.5625 64.7665 1.60384 64.7665 2.92629C64.7665 4.24862 63.8574 5.28961 62.7025 5.28961C61.5477 5.28961 60.6387 4.24862 60.6387 2.92629C60.6387 1.60384 61.5477 0.5625 62.7025 0.5625ZM64.7665 8.51326V21.0626L60.9336 20.8214V8.27209L64.7665 8.51326Z" fill="#CC5520"/>
<path d="M67.4683 8.2713H71.0062V9.7626C72.0875 8.18705 73.3652 7.93359 74.3969 7.93359C75.3552 7.93359 76.6084 8.13057 77.5419 9.19992C78.574 10.3816 78.6475 11.8728 78.6475 12.8862V20.8206H75.1096V14.3775C75.1096 13.5614 75.0852 12.5201 74.5199 11.8729C74.2496 11.5634 73.8073 11.3103 73.1687 11.3103C72.4313 11.3103 71.9644 11.648 71.6943 11.9855C71.1044 12.6609 71.0062 13.5614 71.0062 14.3775V20.8206H67.4683V8.2713Z" fill="#CC5520"/>
<path d="M93.3406 20.8207H89.8027V19.3014C89.2622 20.2016 88.2792 21.2429 86.3386 21.2429C84.7166 21.2429 83.5375 20.6519 82.5792 19.5263C81.449 18.2318 80.8594 16.4312 80.8594 14.4896C80.8594 12.4077 81.5225 10.6911 82.5792 9.53749C83.5375 8.4965 84.8888 7.84935 86.3877 7.84935C87.5916 7.84935 88.9184 8.29965 89.8028 9.67822V0.308594H93.3408V20.8205L93.3406 20.8207ZM85.3555 12.1826C84.8395 12.7455 84.4955 13.5616 84.4955 14.5744C84.4955 15.503 84.8395 16.3186 85.3555 16.8816C85.896 17.4727 86.5841 17.7538 87.1984 17.7538C87.8614 17.7538 88.6479 17.4442 89.2131 16.8255C89.6309 16.3752 90.0239 15.6154 90.0239 14.5745C90.0239 13.5051 89.6552 12.7737 89.2374 12.2672C88.6726 11.592 88.0091 11.3386 87.2476 11.3386C86.535 11.3386 85.9206 11.5636 85.3555 12.1827V12.1826Z" fill="#CC5520"/>
<path d="M107.52 15.2479H99.3376C99.3376 15.9232 99.5585 16.8237 100.001 17.3864C100.542 18.0617 101.279 18.1743 101.819 18.1743C102.335 18.1743 102.876 18.0615 103.244 17.8084C103.294 17.78 103.711 17.4709 104.006 16.7671L107.348 17.1613C106.856 18.9336 105.873 19.8622 105.235 20.3126C104.178 21.0439 102.999 21.2412 101.77 21.2412C100.124 21.2412 98.6742 20.9035 97.3966 19.4403C96.4383 18.3429 95.7505 16.6828 95.7505 14.6005C95.7505 12.7998 96.3153 10.9429 97.4213 9.64841C98.7477 8.12887 100.394 7.84766 101.623 7.84766C102.851 7.84766 104.62 8.10075 105.972 9.73266C107.274 11.3084 107.52 13.2781 107.52 14.8254V15.2477V15.2479ZM104.252 12.828C104.227 12.7153 104.055 11.9278 103.539 11.3648C103.146 10.943 102.581 10.6615 101.868 10.6615C100.959 10.6615 100.418 11.0837 100.075 11.4775C99.8046 11.8151 99.5586 12.2653 99.4602 12.828H104.252Z" fill="white"/>
<path d="M121.672 20.8207H118.134V19.3014C117.593 20.2016 116.61 21.2429 114.67 21.2429C113.048 21.2429 111.869 20.6519 110.91 19.5263C109.78 18.2318 109.19 16.4312 109.19 14.4896C109.19 12.4077 109.853 10.6911 110.91 9.53749C111.869 8.4965 113.22 7.84935 114.719 7.84935C115.923 7.84935 117.249 8.29965 118.134 9.67822V0.308594H121.672V20.8205L121.672 20.8207ZM113.687 12.1826C113.171 12.7455 112.827 13.5616 112.827 14.5744C112.827 15.503 113.171 16.3186 113.687 16.8816C114.227 17.4727 114.915 17.7538 115.529 17.7538C116.192 17.7538 116.979 17.4442 117.544 16.8255C117.962 16.3752 118.355 15.6154 118.355 14.5745C118.355 13.5051 117.986 12.7737 117.568 12.2672C117.004 11.592 116.34 11.3386 115.579 11.3386C114.866 11.3386 114.252 11.5636 113.687 12.1827V12.1826Z" fill="white"/>
</svg>
