<svg width="23" height="23" viewBox="0 0 23 23" fill="none" xmlns="http://www.w3.org/2000/svg">
<g clip-path="url(#clip0_4_282)">
<path d="M22.8984 4.92067C22.7624 4.69948 22.5136 4.5741 22.2546 4.59656L21.1077 4.69647L22.2039 2.48662C22.3345 2.22342 22.2829 1.90632 22.0757 1.69801C21.8685 1.48971 21.5517 1.43661 21.2878 1.56581L18.3865 2.98674C16.5939 2.04041 14.3544 2.32131 12.8134 3.72507C11.5273 4.89664 10.8513 6.69832 10.9773 8.49502C7.61588 8.15811 4.77052 6.23405 3.08802 3.12518C2.97639 2.91895 2.76709 2.78405 2.53319 2.76747C2.29883 2.75116 2.07305 2.85502 1.93352 3.04356C0.889985 4.4533 0.816763 6.3862 1.63484 7.9764C1.40933 7.91944 1.16935 7.84235 0.903237 7.75345C0.675258 7.67722 0.42392 7.72605 0.240953 7.88202C0.0579856 8.03799 -0.0299716 8.27836 0.00915546 8.5156C0.332863 10.4781 1.47729 11.9864 3.28513 12.8792C3.04974 12.9612 2.80955 13.0278 2.5653 13.0787C2.32264 13.1293 2.12615 13.3068 2.05135 13.5431C1.97656 13.7794 2.03505 14.0377 2.2044 14.2187C3.50629 15.6103 5.3869 16.2952 6.7227 16.6238C5.20389 17.8132 3.56437 18.0122 1.18198 17.9304C0.906202 17.9221 0.652124 18.0774 0.53618 18.3274C0.420281 18.5774 0.465248 18.8726 0.650461 19.0767C1.6436 20.1715 5.26188 21.4058 9.06551 21.4984C9.21596 21.502 9.36941 21.504 9.5261 21.504C12.1968 21.5039 15.7263 20.9314 18.2598 18.398C20.1774 16.4804 21.3768 14.2729 21.8246 11.837C22.1863 9.86954 21.9577 8.29404 21.8479 7.53684C21.8398 7.48118 21.8312 7.42211 21.8242 7.37045L22.8969 5.6414C23.0338 5.42083 23.0344 5.14187 22.8984 4.92067ZM20.4903 7.73377C20.6938 9.13642 21.3131 13.4047 17.2898 17.428C14.9512 19.7666 11.5448 20.1865 9.09884 20.1271C7.01173 20.0763 5.14486 19.6771 3.79181 19.2219C4.34116 19.1545 4.83072 19.0506 5.29283 18.9069C6.56677 18.511 7.64301 17.7984 8.67972 16.6647C8.85254 16.4757 8.90564 16.2062 8.81754 15.9658C8.72945 15.7254 8.51472 15.5541 8.26074 15.5215C7.60672 15.4377 5.64156 15.1069 4.09409 14.0395C4.54003 13.8571 4.97011 13.6288 5.38079 13.3564C5.60607 13.2069 5.7226 12.9391 5.67822 12.6724C5.63388 12.4057 5.43708 12.1899 5.17554 12.1213C3.90897 11.7893 2.38036 11.0463 1.67549 9.38762C2.12561 9.4665 2.61503 9.4856 3.13703 9.36857C3.37898 9.3144 3.57286 9.13381 3.64402 8.89626C3.71522 8.65872 3.65269 8.40122 3.48045 8.22288C2.6034 7.31447 2.27542 6.00536 2.55681 4.88514C3.47834 6.23194 4.64582 7.36541 5.98342 8.20343C7.69454 9.2755 9.69168 9.86797 11.759 9.91662C11.9694 9.92107 12.1712 9.82925 12.3052 9.66627C12.439 9.50334 12.4905 9.28785 12.4447 9.08197C12.089 7.48297 12.5963 5.77837 13.7372 4.73919C14.9204 3.66128 16.6692 3.49777 17.9898 4.34181C18.1914 4.47069 18.4458 4.48511 18.6608 4.37981L20.0777 3.68586L19.3361 5.1809C19.2259 5.40304 19.2442 5.66736 19.3839 5.87216C19.5236 6.07696 19.7626 6.19066 20.01 6.16896L21.0092 6.08195L20.5489 6.82383C20.3944 7.07284 20.4265 7.29376 20.4903 7.73377Z" fill="white"/>
</g>
<defs>
<clipPath id="clip0_4_282">
<rect width="23" height="23" fill="white"/>
</clipPath>
</defs>
</svg>
