<svg width="23" height="23" viewBox="0 0 23 23" fill="none" xmlns="http://www.w3.org/2000/svg">
<g clip-path="url(#clip0_1_79)">
<path d="M16.6949 0H6.3051C2.82846 0 0 2.82846 0 6.30514V16.6949C0 20.1716 2.82846 23 6.3051 23H16.6949C20.1716 23 23 20.1716 23 16.6949V6.30514C23 2.82846 20.1716 0 16.6949 0ZM21.6417 16.6949C21.6417 19.4226 19.4226 21.6417 16.6949 21.6417H6.3051C3.5774 21.6417 1.35826 19.4226 1.35826 16.6949V6.30514C1.35826 3.5774 3.5774 1.35826 6.3051 1.35826H16.6949C19.4226 1.35826 21.6417 3.5774 21.6417 6.30514V16.6949Z" fill="white"/>
<path d="M11.5001 5.19165C8.02159 5.19165 5.19165 8.02159 5.19165 11.5001C5.19165 14.9786 8.02155 17.8085 11.5001 17.8085C14.9786 17.8085 17.8085 14.9785 17.8085 11.5C17.8085 8.02155 14.9786 5.19165 11.5001 5.19165ZM11.5001 16.4503C8.77053 16.4503 6.54986 14.2296 6.54986 11.5C6.54986 8.77049 8.77053 6.54982 11.5001 6.54982C14.2297 6.54982 16.4503 8.77053 16.4503 11.5001C16.4503 14.2296 14.2297 16.4503 11.5001 16.4503Z" fill="white"/>
<path d="M18.1857 2.89758C17.1288 2.89758 16.269 3.75743 16.269 4.81426C16.269 5.8711 17.1288 6.7309 18.1857 6.7309C19.2425 6.7309 20.1023 5.87105 20.1023 4.81422C20.1023 3.75739 19.2425 2.89758 18.1857 2.89758ZM18.1857 5.3726C17.8778 5.3726 17.6273 5.12211 17.6273 4.81422C17.6273 4.50633 17.8778 4.25584 18.1857 4.25584C18.4936 4.25584 18.7441 4.50637 18.7441 4.81422C18.7441 5.12207 18.4936 5.3726 18.1857 5.3726Z" fill="white"/>
</g>
<defs>
<clipPath id="clip0_1_79">
<rect width="23" height="23" fill="white"/>
</clipPath>
</defs>
</svg>
