<svg width="23" height="23" viewBox="0 0 23 23" fill="none" xmlns="http://www.w3.org/2000/svg">
<g clip-path="url(#clip0_4_278)">
<path d="M22.5496 1.88443C22.1796 1.54541 21.6537 1.43243 21.177 1.58952L0.953747 8.25597C0.4026 8.43764 0.0288501 8.92962 0.00158248 9.50925C-0.0256402 10.0889 0.300268 10.6138 0.831873 10.8465L5.83325 13.0347C5.85764 13.1479 7.29339 19.807 7.34222 20.0333C7.40489 20.3241 7.55246 20.583 7.86507 20.6627C8.18127 20.7432 8.40467 20.5704 8.6406 20.3938C8.7719 20.2955 12.352 17.6147 12.352 17.6147L16.691 21.1653C16.9437 21.3722 17.2526 21.4801 17.5676 21.4801C17.7175 21.48 17.8689 21.4556 18.0162 21.4056C18.4728 21.2508 18.8114 20.8781 18.9217 20.4087L22.9632 3.22598C23.078 2.73746 22.9196 2.22346 22.5496 1.88443ZM8.9639 14.2886C8.96143 14.2945 8.959 14.3011 8.95671 14.309L8.12009 17.2319L7.18643 12.9017L13.6065 9.33468L9.11789 14.028C9.04719 14.102 8.99517 14.1914 8.9639 14.2886ZM9.22943 18.2653L9.60943 16.9377L9.97289 15.6678L11.2752 16.7335L9.22943 18.2653ZM21.6482 2.91665L17.6068 20.0994C17.6048 20.1079 17.6021 20.1197 17.5823 20.1264C17.5628 20.133 17.5532 20.1254 17.5465 20.1198L12.7987 16.2346C12.7985 16.2345 12.7984 16.2344 12.7983 16.2343L10.5985 14.4342L17.6658 7.04466C17.8966 6.80329 17.9163 6.42949 17.7123 6.16513C17.5081 5.90072 17.1414 5.82521 16.8496 5.98746L6.38498 11.8017L1.37336 9.60888C1.35809 9.60224 1.34969 9.59851 1.3509 9.57268C1.35211 9.54694 1.36083 9.54402 1.37664 9.53881L21.5999 2.8724C21.6097 2.86921 21.6208 2.86553 21.637 2.88035C21.6533 2.89527 21.6506 2.90659 21.6482 2.91665Z" fill="white"/>
</g>
<defs>
<clipPath id="clip0_4_278">
<rect width="23" height="23" fill="white"/>
</clipPath>
</defs>
</svg>
