<svg width="21" height="5" viewBox="0 0 21 5" fill="none" xmlns="http://www.w3.org/2000/svg">
<path d="M10.4891 0C9.34062 0 8.41094 0.929688 8.41094 2.07812C8.41094 3.22656 9.34062 4.15625 10.4891 4.15625C11.6375 4.15625 12.5672 3.22656 12.5672 2.07812C12.5672 0.929688 11.6375 0 10.4891 0ZM2.07812 0C0.929688 0 0 0.929688 0 2.07812C0 3.22656 0.929688 4.15625 2.07812 4.15625C3.22656 4.15625 4.15625 3.22656 4.15625 2.07812C4.15625 0.929688 3.22656 0 2.07812 0ZM18.9219 0C17.7734 0 16.8438 0.929688 16.8438 2.07812C16.8438 3.22656 17.7734 4.15625 18.9219 4.15625C20.0703 4.15625 21 3.22656 21 2.07812C21 0.929688 20.0703 0 18.9219 0Z" fill="white"/>
</svg>
