<svg width="22" height="22" viewBox="0 0 22 22" fill="none" xmlns="http://www.w3.org/2000/svg">
<path d="M21.7419 20.4077L15.6232 14.2333C16.8206 12.7326 17.5425 10.831 17.5425 8.76334C17.5425 3.92346 13.6181 0 8.77125 0C3.92443 0 0 3.92919 0 8.76907C0 13.609 3.92443 17.5324 8.77125 17.5324C10.8681 17.5324 12.7873 16.7993 14.2998 15.5735L20.3784 21.7079C20.5617 21.9026 20.8138 22 21.0602 22C21.2951 22 21.5299 21.9141 21.7075 21.7423C22.0857 21.3814 22.0971 20.7857 21.7419 20.4077ZM8.77125 15.648C6.93221 15.648 5.20202 14.932 3.90152 13.6319C2.60101 12.3317 1.88487 10.6019 1.88487 8.76907C1.88487 6.93049 2.60101 5.20073 3.90152 3.90627C5.20202 2.60609 6.93221 1.89013 8.77125 1.89013C10.6103 1.89013 12.3405 2.60609 13.641 3.90627C14.9415 5.20646 15.6576 6.93621 15.6576 8.76907C15.6576 10.6077 14.9415 12.3374 13.641 13.6319C12.3405 14.932 10.6103 15.648 8.77125 15.648Z" fill="black"/>
</svg>
