<svg fill="none" viewBox="0 0 28 28" xmlns="http://www.w3.org/2000/svg"><path clip-rule="evenodd" d="M1.82 1a.81.81 0 0 0-.82.798v.601c0 .441.367.798.82.798h1.907c.312 0 .596.172.735.443l1.033 2.293c.038.075.069.161.126.219l4.436 10.29a.737.737 0 0 0-.126.076c-1.23.905-2.06 2.07-2.061 3.242 0 .683.293 1.32.88 1.761.558.418 1.286.59 2.069.59h.026a2.842 2.842 0 0 0-.821 1.996c0 1.598 1.331 2.893 2.974 2.893 1.643 0 2.974-1.295 2.974-2.893 0-.773-.312-1.476-.82-1.995h3.897a2.842 2.842 0 0 0-.82 1.995c0 1.598 1.331 2.893 2.974 2.893 1.642 0 2.974-1.295 2.974-2.893 0-.773-.312-1.476-.82-1.995h.615a.81.81 0 0 0 .82-.798v-.4a.81.81 0 0 0-.82-.797H10.819c-.5 0-.733-.113-.816-.176-.054-.04-.082-.08-.082-.18 0-.27.25-.89 1.148-1.578a.978.978 0 0 0 .11-.099c.09.025.184.038.281.038h12.463c.502 0 .93-.352 1.012-.834l2.05-11.97c.105-.608-.377-1.161-1.01-1.161H7.354a.4.4 0 0 1-.364-.233L5.85 1.443A.823.823 0 0 0 5.115 1H1.82Zm6.657 5.152a.4.4 0 0 0-.368.557l3.931 9.176a.4.4 0 0 0 .368.242h10.31a.4.4 0 0 0 .394-.332l1.571-9.176a.4.4 0 0 0-.394-.467H8.477Zm3.393 17.955c0-.606.505-1.097 1.128-1.097.623 0 1.128.491 1.128 1.097s-.505 1.098-1.128 1.098c-.623 0-1.128-.492-1.128-1.098Zm9.333-1.097c-.623 0-1.128.491-1.128 1.097s.505 1.098 1.128 1.098c.623 0 1.128-.492 1.128-1.098 0-.606-.505-1.097-1.128-1.097Z" fill="#cc5520" fill-rule="evenodd" class="fill-000000"></path></svg>